Patient4_TMGait_0pt7_01_right_03_GRF.mot
version=1
nRows=59
nColumns=19
inDegrees=no
endheader
time	F1x	F1y	F1z	M1x	M1y	M1z	F2x	F2y	F2z	M2x	M2y	M2z	EC1x	EC1y	EC1z	EC2x	EC2y	EC2z
2.88	-3.2543	709.3799	66.8517	-276.2133	-56.1358	651.0686	-2.4145	-8.0366	-19.1277	3.4014	10.4333	1.1154	-0.0592	0.0182	-0.0073	-0.0462	0.0165	0.9585
2.8916	1.3344	713.1193	68.0215	-277.2131	-56.7054	655.5921	-1.9007	-4.1998	-13.1317	2.7652	7.26	1.9635	-0.0592	0.0182	-0.0073	-0.0462	0.0165	0.9585
2.9033	5.0881	717.7595	69.1402	-278.4357	-57.2904	660.1746	-1.471	-0.89779	-7.9979	2.2191	4.5551	2.7586	-0.0592	0.0182	-0.0073	-0.0462	0.0165	0.9585
2.9149	7.8266	723.1057	70.1719	-279.854	-57.8787	664.5648	-1.1399	1.6717	-4.0467	1.8046	2.4818	3.4284	-0.0592	0.0182	-0.0073	-0.0462	0.0165	0.9585
2.9266	9.6341	728.8542	71.0929	-281.4236	-58.4427	668.5224	-0.93582	3.5205	-1.298	1.5271	1.0596	3.9883	-0.0592	0.0182	-0.0073	-0.0462	0.0165	0.9585
2.9382	10.7321	734.6737	71.8785	-283.0916	-58.9312	671.8261	-0.82162	4.7269	0.42422	1.3624	0.18437	4.4189	-0.0592	0.0182	-0.0073	-0.0462	0.0165	0.9585
2.9499	11.3925	740.2641	72.5014	-284.8097	-59.2659	674.2813	-0.80452	5.4096	1.3437	1.2764	-0.25236	4.7375	-0.0592	0.0182	-0.0073	-0.0462	0.0165	0.9585
2.9615	11.8868	745.4487	72.9051	-286.5567	-59.3398	675.815	-0.85209	5.6377	1.6979	1.2197	-0.38062	4.8659	-0.0592	0.0182	-0.0073	-0.0462	0.0165	0.9585
2.9731	12.4054	750.1954	73.0822	-288.338	-59.1063	676.4617	-0.97076	5.4595	1.6911	1.1425	-0.30137	4.7424	-0.0592	0.0182	-0.0073	-0.0462	0.0165	0.9585
2.9848	13.0877	754.5431	73.0056	-290.1596	-58.5071	676.3233	-1.1303	4.8443	1.4759	0.98418	-0.096768	4.2294	-0.0592	0.0182	-0.0073	-0.0462	0.0165	0.9585
2.9964	14.0428	758.5057	72.747	-291.9966	-57.5765	675.4616	-1.3292	3.7485	1.1719	0.69249	0.16402	3.2146	-0.0592	0.0182	-0.0073	-0.0462	0.0165	0.9585
3.0081	15.3468	762.0455	72.353	-293.7937	-56.3311	673.8814	-1.5127	2.0825	0.84624	0.21554	0.42882	1.5443	-0.0592	0.0182	-0.0073	-0.0462	0.0165	0.9585
3.0197	17.0897	765.0252	71.9155	-295.4499	-54.8288	671.5074	-1.6401	-0.20118	0.5601	-0.47773	0.63918	-0.85429	-0.0592	0.0182	-0.0073	-0.0462	0.0165	0.9585
3.0314	19.3115	767.1871	71.469	-296.8184	-53.0917	668.1609	-1.6118	-3.0783	0.34984	-1.3863	0.73385	-3.9716	-0.0592	0.0182	-0.0073	-0.0462	0.0165	0.9585
3.043	22.0247	768.1009	71.0413	-297.6911	-51.1556	663.5302	-1.3281	-6.3587	0.26098	-2.4455	0.63473	-7.5758	-0.0592	0.0182	-0.0073	-0.0462	0.0165	0.9585
3.0546	25.1783	767.2085	70.6191	-297.8114	-49.0442	657.2331	-0.62788	-9.6064	0.33174	-3.5013	0.25107	-11.179	-0.0592	0.0182	-0.0073	-0.0462	0.0165	0.9585
3.0663	28.675	763.805	70.1741	-296.8751	-46.7865	648.7813	0.62445	-12.0014	0.61537	-4.2681	-0.52155	-13.8638	-0.0592	0.0182	-0.0073	-0.0462	0.0165	0.9585
3.0779	32.354	757.2219	69.6683	-294.5968	-44.424	637.7502	2.5808	-12.2464	1.1578	-4.2969	-1.7849	-14.1941	-0.0592	0.0182	-0.0073	-0.0462	0.0165	0.9585
3.0896	36.0619	747.0556	69.044	-290.8036	-41.9836	623.9479	5.3187	-8.4449	2.0088	-2.9384	-3.6221	-10.0688	-0.0592	0.0182	-0.0073	-0.0462	0.0165	0.9585
3.1012	39.6235	733.2904	68.2548	-285.4851	-39.5077	607.5198	8.8077	1.846	3.1677	0.64091	-6.0205	1.1836	-0.0592	0.0182	-0.0073	-0.0462	0.0165	0.9585
3.1129	42.925	716.2828	67.2254	-278.7822	-36.9985	588.9061	12.7665	21.509	4.5799	7.4155	-8.8192	22.724	-0.0592	0.0182	-0.0073	-0.0462	0.0165	0.9585
3.1245	45.8651	696.497	65.8737	-270.8878	-34.4417	568.6171	16.5719	53.4053	6.0925	18.3469	-11.6291	57.6721	-0.0592	0.0182	-0.0073	-0.0462	0.0165	0.9585
3.1361	48.3867	674.2082	64.0405	-261.9299	-31.7454	546.9544	19.0695	99.695	7.389	34.1439	-13.7099	108.3955	-0.0592	0.0182	-0.0073	-0.0462	0.0165	0.9585
3.1478	50.4208	649.2577	61.5079	-251.8818	-28.7708	523.8385	18.5267	160.6423	7.9414	54.8627	-13.9099	175.1839	-0.0592	0.0182	-0.0073	-0.0462	0.0165	0.9585
3.1594	51.8756	620.999	57.9999	-240.5419	-25.3428	498.7562	12.9947	233.4763	7.1014	79.5127	-10.9033	255.0279	-0.0592	0.0182	-0.0073	-0.0462	0.0165	0.9585
3.1711	52.5763	588.4714	53.2905	-227.5981	-21.3526	470.9064	1.6753	311.51	4.2416	105.7751	-3.7986	340.5699	-0.0592	0.0182	-0.0073	-0.0462	0.0165	0.9585
3.1827	52.3632	550.7769	47.3015	-212.7652	-16.8001	439.4917	-13.2201	386.5175	-1.1141	130.8256	7.095	422.6114	-0.0592	0.0182	-0.0073	-0.0462	0.0165	0.9585
3.1944	51.0764	507.4618	40.1992	-195.9039	-11.8568	404.0623	-28.815	453.0895	-8.198	152.8525	19.9515	494.827	-0.0592	0.0182	-0.0073	-0.0462	0.0165	0.9585
3.206	48.5853	458.5314	32.4875	-177.0116	-6.936	364.5489	-42.9342	510.0135	-16.1286	171.4759	33.0837	555.5366	-0.0592	0.0182	-0.0073	-0.0462	0.0165	0.9585
3.2176	44.81	404.5355	24.8513	-156.2596	-2.5653	321.3286	-54.1608	558.3942	-23.9134	187.1329	44.9652	605.8162	-0.0592	0.0182	-0.0073	-0.0462	0.0165	0.9585
3.2293	39.7359	346.7876	17.8711	-134.0939	0.83876	275.3899	-61.7971	599.9538	-30.8945	200.4567	54.6844	647.5815	-0.0592	0.0182	-0.0073	-0.0462	0.0165	0.9585
3.2409	33.4807	287.347	11.9437	-111.255	3.0319	228.2905	-65.9302	635.9611	-36.7451	211.9173	61.9402	682.386	-0.0592	0.0182	-0.0073	-0.0462	0.0165	0.9585
3.2526	26.3308	228.9486	7.2079	-88.7568	4.0186	182.1283	-66.9699	667.1397	-41.4818	221.7821	66.9227	711.1773	-0.0592	0.0182	-0.0073	-0.0462	0.0165	0.9585
3.2642	18.7726	174.4787	3.7063	-67.7018	3.9305	139.1152	-65.5952	694.0593	-45.4306	230.2417	70.2182	734.7754	-0.0592	0.0182	-0.0073	-0.0462	0.0165	0.9585
3.2759	11.4758	126.4905	1.2864	-49.0862	3.1269	101.218	-62.4906	717.1626	-48.8122	237.4466	72.3185	753.8357	-0.0592	0.0182	-0.0073	-0.0462	0.0165	0.9585
3.2875	5.1719	86.5233	-0.22586	-33.5378	1.9941	69.6006	-58.3639	736.6991	-51.8753	243.4754	73.7245	768.8585	-0.0592	0.0182	-0.0073	-0.0462	0.0165	0.9585
3.2991	0.33652	54.9939	-1.0625	-21.2541	0.88589	44.5931	-53.8111	752.6203	-54.5931	248.3206	74.6255	779.9603	-0.0592	0.0182	-0.0073	-0.0462	0.0165	0.9585
3.3108	-2.8024	31.4555	-1.4035	-12.083	0.015593	25.8633	-49.3547	764.7398	-56.9525	251.9212	75.1795	787.1231	-0.0592	0.0182	-0.0073	-0.0462	0.0165	0.9585
3.3224	-4.3095	14.9208	-1.3987	-5.6537	-0.52756	12.6781	-45.2059	772.912	-58.7977	254.235	75.3106	790.2978	-0.0592	0.0182	-0.0073	-0.0462	0.0165	0.9585
3.3341	-4.4763	4.1993	-1.1836	-1.5027	-0.74918	4.0899	-41.4925	777.1233	-60.0557	255.2556	74.9858	789.5718	-0.0592	0.0182	-0.0073	-0.0462	0.0165	0.9585
3.3457	-3.871	-1.9402	-0.87683	0.85614	-0.76029	-0.85612	-38.1671	777.5276	-60.6644	255.0369	74.1251	785.1401	-0.0592	0.0182	-0.0073	-0.0462	0.0165	0.9585
3.3574	-2.9201	-4.776	-0.58034	1.9219	-0.64025	-3.1765	-35.1856	774.5892	-60.7203	253.7203	72.807	777.5337	-0.0592	0.0182	-0.0073	-0.0462	0.0165	0.9585
3.369	-1.9392	-5.4376	-0.30126	2.1428	-0.50383	-3.7519	-32.4765	769.0073	-60.4093	251.526	71.195	767.4417	-0.0592	0.0182	-0.0073	-0.0462	0.0165	0.9585
3.3806	-1.0677	-4.8575	-0.089394	1.8813	-0.36123	-3.348	-30.0294	761.8247	-59.9242	248.7798	69.485	755.9244	-0.0592	0.0182	-0.0073	-0.0462	0.0165	0.9585
3.3923	-0.3951	-3.6882	0.077164	1.397	-0.26129	-2.4707	-27.8093	754.1542	-59.4097	245.8435	67.8212	744.0641	-0.0592	0.0182	-0.0073	-0.0462	0.0165	0.9585
3.4039	0.090059	-2.3746	0.17909	0.86234	-0.18106	-1.4916	-25.8427	747.1259	-58.9271	243.0877	66.2789	732.9586	-0.0592	0.0182	-0.0073	-0.0462	0.0165	0.9585
3.4156	0.39203	-1.1765	0.24137	0.37733	-0.13342	-0.58719	-24.067	741.6669	-58.5409	240.8214	64.9042	723.4548	-0.0592	0.0182	-0.0073	-0.0462	0.0165	0.9585
3.4272	0.57217	-0.2021	0.26775	-0.017145	-0.097959	0.15005	-22.4775	738.4358	-58.2568	239.266	63.6938	716.1536	-0.0592	0.0182	-0.0073	-0.0462	0.0165	0.9585
3.4389	0.64405	0.50722	0.26921	-0.30568	-0.073981	0.70746	-21.0116	737.7373	-58.138	238.5234	62.6831	711.2928	-0.0592	0.0182	-0.0073	-0.0462	0.0165	0.9585
3.4505	0.67168	0.99291	0.25291	-0.50302	-0.047012	1.112	-19.6613	739.539	-58.1921	238.5829	61.87	708.8122	-0.0592	0.0182	-0.0073	-0.0462	0.0165	0.9585
3.4621	0.652	1.3139	0.21619	-0.62961	-0.011149	1.4311	-18.3725	743.4763	-58.4482	239.3268	61.2699	708.3324	-0.0592	0.0182	-0.0073	-0.0462	0.0165	0.9585
3.4738	0.6288	1.5216	0.17443	-0.70581	0.031373	1.681	-17.1155	748.9678	-58.9095	240.5642	60.8771	709.2856	-0.0592	0.0182	-0.0073	-0.0462	0.0165	0.9585
3.4854	0.5875	1.6755	0.12623	-0.75327	0.075202	1.9015	-15.8251	755.2109	-59.5713	242.0346	60.6683	710.8781	-0.0592	0.0182	-0.0073	-0.0462	0.0165	0.9585
3.4971	0.54831	1.7956	0.088159	-0.78348	0.10517	2.0728	-14.4524	761.3303	-60.3928	243.4554	60.5857	712.282	-0.0592	0.0182	-0.0073	-0.0462	0.0165	0.9585
3.5087	0.49338	1.9129	0.063264	-0.8073	0.11225	2.2211	-12.9277	766.465	-61.3039	244.5511	60.5442	712.6867	-0.0592	0.0182	-0.0073	-0.0462	0.0165	0.9585
3.5204	0.43515	1.9984	0.062778	-0.81906	0.089089	2.3156	-11.2339	769.8652	-62.197	245.0846	60.4414	711.4299	-0.0592	0.0182	-0.0073	-0.0462	0.0165	0.9585
3.532	0.34636	2.0188	0.092111	-0.80641	0.02444	2.3386	-9.355	770.9799	-62.9629	244.8873	60.1781	708.0375	-0.0592	0.0182	-0.0073	-0.0462	0.0165	0.9585
3.5436	0.23236	1.9096	0.14834	-0.7456	-0.079562	2.2089	-7.2984	769.5032	-63.513	243.8716	59.6791	702.2652	-0.0592	0.0182	-0.0073	-0.0462	0.0165	0.9585
3.5553	0.070803	1.5883	0.23715	-0.60282	-0.23474	1.8485	-5.0568	765.3802	-63.8018	242.0319	58.9045	694.0853	-0.0592	0.0182	-0.0073	-0.0462	0.0165	0.9585
